<svg xmlns="http://www.w3.org/2000/svg" xmlns:xlink="http://www.w3.org/1999/xlink" width="1000" height="477.62"><rect width="1000" height="477.62" rx="0" ry="0" class="a"/><svg height="477.62" viewBox="0 0 100 47.762" width="1000" xmlns="http://www.w3.org/2000/svg" xmlns:xlink="http://www.w3.org/1999/xlink"><style>@keyframes f{0%{transform:translateX(0)}.1%{transform:translateX(-200px)}6.3%{transform:translateX(-300px)}8%{transform:translateX(-400px)}8.8%{transform:translateX(-500px)}10.5%{transform:translateX(-600px)}12.1%{transform:translateX(-700px)}13%{transform:translateX(-800px)}14.5%{transform:translateX(-900px)}15%{transform:translateX(-1000px)}16.6%{transform:translateX(-1100px)}17.8%{transform:translateX(-1200px)}18.3%{transform:translateX(-1300px)}21.2%{transform:translateX(-1400px)}23%{transform:translateX(-1500px)}23.3%{transform:translateX(-1800px)}29.8%{transform:translateX(-1900px)}30.3%{transform:translateX(-2000px)}32.4%{transform:translateX(-2100px)}33.4%{transform:translateX(-2200px)}34.3%{transform:translateX(-2300px)}35.5%{transform:translateX(-2400px)}37.3%{transform:translateX(-2500px)}40%{transform:translateX(-2600px)}41%{transform:translateX(-2700px)}44.4%{transform:translateX(-2800px)}44.9%{transform:translateX(-2900px)}47.1%{transform:translateX(-3000px)}48.1%{transform:translateX(-3100px)}49%{transform:translateX(-3200px)}50%{transform:translateX(-3300px)}54.1%{transform:translateX(-3400px)}55.2%{transform:translateX(-3500px)}59.8%{transform:translateX(-3600px)}60.4%{transform:translateX(-3700px)}61.7%{transform:translateX(-3800px)}62.6%{transform:translateX(-3900px)}68.6%{transform:translateX(-4000px)}72.9%{transform:translateX(-4100px)}73.7%{transform:translateX(-4200px)}75%{transform:translateX(-4300px)}75.8%{transform:translateX(-4400px)}77.2%{transform:translateX(-4500px)}78.7%{transform:translateX(-4600px)}79.3%{transform:translateX(-4700px)}81%{transform:translateX(-4800px)}84.1%{transform:translateX(-4900px)}84.4%{transform:translateX(-5400px)}to{transform:translateX(-5500px)}}.a{fill:#282d35}.c{fill:#b9c0cb;white-space:pre}</style><g font-family="Monaco,Consolas,Menlo,'Bitstream Vera Sans Mono','Powerline Symbols',monospace" font-size="1.67"><defs><symbol id="1"><text y="1.67" class="c">[bencinn@archbox</text><text x="17.034" y="1.67" class="c">build]$</text></symbol><symbol id="2"><text y="1.67" class="c">[bencinn@archbox</text><text x="17.034" y="1.67" class="c">build]$</text><text x="25.05" y="1.67" class="c">cat</text></symbol><symbol id="3"><text y="1.67" class="c">[bencinn@archbox</text><text x="17.034" y="1.67" class="c">build]$</text><text x="25.05" y="1.67" class="c">cat</text><text x="29.058" y="1.67" class="c">code.teo</text></symbol><symbol id="4"><text y="1.67" class="c">let</text><text x="4.008" y="1.67" class="c">x</text><text x="6.012" y="1.67" class="c">3;</text></symbol><symbol id="5"><text y="1.67" class="c">print</text><text x="6.012" y="1.67" class="c">x;</text></symbol><symbol id="6"><text y="1.67" class="c">[bencinn@archbox</text><text x="17.034" y="1.67" class="c">build]$</text><text x="25.05" y="1.67" class="c">./main</text></symbol><symbol id="7"><text y="1.67" class="c">[bencinn@archbox</text><text x="17.034" y="1.67" class="c">build]$</text><text x="25.05" y="1.67" class="c">./main</text><text x="32.064" y="1.67" class="c">--debug</text></symbol><symbol id="8"><text y="1.67" class="c">[bencinn@archbox</text><text x="17.034" y="1.67" class="c">build]$</text><text x="25.05" y="1.67" class="c">./main</text><text x="32.064" y="1.67" class="c">--debug</text><text x="40.08" y="1.67" class="c">--file</text></symbol><symbol id="9"><text y="1.67" class="c">[bencinn@archbox</text><text x="17.034" y="1.67" class="c">build]$</text><text x="25.05" y="1.67" class="c">./main</text><text x="32.064" y="1.67" class="c">--debug</text><text x="40.08" y="1.67" class="c">--file</text><text x="47.094" y="1.67" class="c">code.teo</text></symbol><symbol id="10"><text y="1.67" class="c">Compiled</text><text x="9.018" y="1.67" class="c">at</text><text x="12.024" y="1.67" class="c">Dec</text><text x="16.032" y="1.67" class="c">25</text><text x="19.038" y="1.67" class="c">2022,</text><text x="25.05" y="1.67" class="c">19:10:53.</text></symbol><symbol id="11"><text y="1.67" class="c">Git</text><text x="4.008" y="1.67" class="c">ref:</text><text x="9.018" y="1.67" class="c">dc46252</text></symbol><symbol id="12"><text y="1.67" class="c">&gt;&gt;</text><text x="3.006" y="1.67" class="c">let</text><text x="7.014" y="1.67" class="c">x</text><text x="9.018" y="1.67" class="c">3</text></symbol><symbol id="13"><text y="1.67" class="c">&gt;&gt;</text><text x="3.006" y="1.67" class="c">print</text><text x="9.018" y="1.67" class="c">x</text></symbol><symbol id="14"><text y="1.67" class="c">Running</text><text x="8.016" y="1.67" class="c">&apos;let</text><text x="13.026" y="1.67" class="c">x</text><text x="15.03" y="1.67" class="c">3&apos;</text></symbol><symbol id="15"><text y="1.67" class="c">Variable</text><text x="9.018" y="1.67" class="c">&apos;x&apos;</text><text x="13.026" y="1.67" class="c">set</text><text x="17.034" y="1.67" class="c">to</text><text x="20.04" y="1.67" class="c">3</text></symbol><symbol id="16"><text y="1.67" class="c">Running</text><text x="8.016" y="1.67" class="c">&apos;print</text><text x="15.03" y="1.67" class="c">x&apos;</text></symbol><symbol id="17"><text y="1.67" class="c">3</text></symbol><symbol id="a"><path fill="transparent" d="M0 0h100v23H0z"/></symbol><symbol id="b"><path fill="#6f7683" d="M0 0h1.102v2.171H0z"/></symbol></defs><path class="a" d="M0 0h100v47.762H0z"/><g style="animation-duration:13.398242s;animation-iteration-count:infinite;animation-name:f;animation-timing-function:steps(1,end)"><svg width="5600"><svg><use xlink:href="#a"/><use xlink:href="#b" x="-.004"/></svg><svg x="100"><use xlink:href="#a"/><use xlink:href="#b" x="-.004"/></svg><svg x="200"><use xlink:href="#a"/><use xlink:href="#b" x="24.996"/><use xlink:href="#1"/></svg><svg x="300"><use xlink:href="#a"/><use xlink:href="#b" x="25.996"/><text y="1.67" class="c">[bencinn@archbox</text><text x="17.034" y="1.67" class="c">build]$</text><text x="25.05" y="1.67" class="c">c</text></svg><svg x="400"><use xlink:href="#a"/><use xlink:href="#b" x="26.996"/><text y="1.67" class="c">[bencinn@archbox</text><text x="17.034" y="1.67" class="c">build]$</text><text x="25.05" y="1.67" class="c">ca</text></svg><svg x="500"><use xlink:href="#a"/><use xlink:href="#b" x="27.996"/><use xlink:href="#2"/></svg><svg x="600"><use xlink:href="#a"/><use xlink:href="#b" x="28.996"/><use xlink:href="#2"/></svg><svg x="700"><use xlink:href="#a"/><use xlink:href="#b" x="29.996"/><text y="1.67" class="c">[bencinn@archbox</text><text x="17.034" y="1.67" class="c">build]$</text><text x="25.05" y="1.67" class="c">cat</text><text x="29.058" y="1.67" class="c">c</text></svg><svg x="800"><use xlink:href="#a"/><use xlink:href="#b" x="30.996"/><text y="1.67" class="c">[bencinn@archbox</text><text x="17.034" y="1.67" class="c">build]$</text><text x="25.05" y="1.67" class="c">cat</text><text x="29.058" y="1.67" class="c">co</text></svg><svg x="900"><use xlink:href="#a"/><use xlink:href="#b" x="31.996"/><text y="1.67" class="c">[bencinn@archbox</text><text x="17.034" y="1.67" class="c">build]$</text><text x="25.05" y="1.67" class="c">cat</text><text x="29.058" y="1.67" class="c">cod</text></svg><svg x="1000"><use xlink:href="#a"/><use xlink:href="#b" x="32.996"/><text y="1.67" class="c">[bencinn@archbox</text><text x="17.034" y="1.67" class="c">build]$</text><text x="25.05" y="1.67" class="c">cat</text><text x="29.058" y="1.67" class="c">code</text></svg><svg x="1100"><use xlink:href="#a"/><use xlink:href="#b" x="33.996"/><text y="1.67" class="c">[bencinn@archbox</text><text x="17.034" y="1.67" class="c">build]$</text><text x="25.05" y="1.67" class="c">cat</text><text x="29.058" y="1.67" class="c">code.</text></svg><svg x="1200"><use xlink:href="#a"/><use xlink:href="#b" x="34.996"/><text y="1.67" class="c">[bencinn@archbox</text><text x="17.034" y="1.67" class="c">build]$</text><text x="25.05" y="1.67" class="c">cat</text><text x="29.058" y="1.67" class="c">code.t</text></svg><svg x="1300"><use xlink:href="#a"/><use xlink:href="#b" x="35.996"/><text y="1.67" class="c">[bencinn@archbox</text><text x="17.034" y="1.67" class="c">build]$</text><text x="25.05" y="1.67" class="c">cat</text><text x="29.058" y="1.67" class="c">code.te</text></svg><svg x="1400"><use xlink:href="#a"/><use xlink:href="#b" x="36.996"/><use xlink:href="#3"/></svg><svg x="1500"><use xlink:href="#a"/><use xlink:href="#b" x="-.004" y="2.146"/><use xlink:href="#3"/></svg><svg x="1600"><use xlink:href="#a"/><use xlink:href="#b" x="-.004" y="6.488"/><use xlink:href="#3"/><use xlink:href="#4" y="2.171"/><use xlink:href="#5" y="4.342"/></svg><svg x="1700"><use xlink:href="#a"/><use xlink:href="#b" x="-.004" y="6.488"/><use xlink:href="#3"/><use xlink:href="#4" y="2.171"/><use xlink:href="#5" y="4.342"/></svg><svg x="1800"><use xlink:href="#a"/><use xlink:href="#b" x="24.996" y="6.488"/><use xlink:href="#3"/><use xlink:href="#4" y="2.171"/><use xlink:href="#5" y="4.342"/><use xlink:href="#1" y="6.513"/></svg><svg x="1900"><use xlink:href="#a"/><use xlink:href="#b" x="25.996" y="6.488"/><use xlink:href="#3"/><use xlink:href="#4" y="2.171"/><use xlink:href="#5" y="4.342"/><text y="8.183" class="c">[bencinn@archbox</text><text x="17.034" y="8.183" class="c">build]$</text><text x="25.05" y="8.183" class="c">.</text></svg><svg x="2000"><use xlink:href="#a"/><use xlink:href="#b" x="26.996" y="6.488"/><use xlink:href="#3"/><use xlink:href="#4" y="2.171"/><use xlink:href="#5" y="4.342"/><text y="8.183" class="c">[bencinn@archbox</text><text x="17.034" y="8.183" class="c">build]$</text><text x="25.05" y="8.183" class="c">./</text></svg><svg x="2100"><use xlink:href="#a"/><use xlink:href="#b" x="27.996" y="6.488"/><use xlink:href="#3"/><use xlink:href="#4" y="2.171"/><use xlink:href="#5" y="4.342"/><text y="8.183" class="c">[bencinn@archbox</text><text x="17.034" y="8.183" class="c">build]$</text><text x="25.05" y="8.183" class="c">./m</text></svg><svg x="2200"><use xlink:href="#a"/><use xlink:href="#b" x="28.996" y="6.488"/><use xlink:href="#3"/><use xlink:href="#4" y="2.171"/><use xlink:href="#5" y="4.342"/><text y="8.183" class="c">[bencinn@archbox</text><text x="17.034" y="8.183" class="c">build]$</text><text x="25.05" y="8.183" class="c">./ma</text></svg><svg x="2300"><use xlink:href="#a"/><use xlink:href="#b" x="29.996" y="6.488"/><use xlink:href="#3"/><use xlink:href="#4" y="2.171"/><use xlink:href="#5" y="4.342"/><text y="8.183" class="c">[bencinn@archbox</text><text x="17.034" y="8.183" class="c">build]$</text><text x="25.05" y="8.183" class="c">./mai</text></svg><svg x="2400"><use xlink:href="#a"/><use xlink:href="#b" x="30.996" y="6.488"/><use xlink:href="#3"/><use xlink:href="#4" y="2.171"/><use xlink:href="#5" y="4.342"/><use xlink:href="#6" y="6.513"/></svg><svg x="2500"><use xlink:href="#a"/><use xlink:href="#b" x="31.996" y="6.488"/><use xlink:href="#3"/><use xlink:href="#4" y="2.171"/><use xlink:href="#5" y="4.342"/><use xlink:href="#6" y="6.513"/></svg><svg x="2600"><use xlink:href="#a"/><use xlink:href="#b" x="32.996" y="6.488"/><use xlink:href="#3"/><use xlink:href="#4" y="2.171"/><use xlink:href="#5" y="4.342"/><text y="8.183" class="c">[bencinn@archbox</text><text x="17.034" y="8.183" class="c">build]$</text><text x="25.05" y="8.183" class="c">./main</text><text x="32.064" y="8.183" class="c">-</text></svg><svg x="2700"><use xlink:href="#a"/><use xlink:href="#b" x="33.996" y="6.488"/><use xlink:href="#3"/><use xlink:href="#4" y="2.171"/><use xlink:href="#5" y="4.342"/><text y="8.183" class="c">[bencinn@archbox</text><text x="17.034" y="8.183" class="c">build]$</text><text x="25.05" y="8.183" class="c">./main</text><text x="32.064" y="8.183" class="c">--</text></svg><svg x="2800"><use xlink:href="#a"/><use xlink:href="#b" x="34.996" y="6.488"/><use xlink:href="#3"/><use xlink:href="#4" y="2.171"/><use xlink:href="#5" y="4.342"/><text y="8.183" class="c">[bencinn@archbox</text><text x="17.034" y="8.183" class="c">build]$</text><text x="25.05" y="8.183" class="c">./main</text><text x="32.064" y="8.183" class="c">--d</text></svg><svg x="2900"><use xlink:href="#a"/><use xlink:href="#b" x="35.996" y="6.488"/><use xlink:href="#3"/><use xlink:href="#4" y="2.171"/><use xlink:href="#5" y="4.342"/><text y="8.183" class="c">[bencinn@archbox</text><text x="17.034" y="8.183" class="c">build]$</text><text x="25.05" y="8.183" class="c">./main</text><text x="32.064" y="8.183" class="c">--de</text></svg><svg x="3000"><use xlink:href="#a"/><use xlink:href="#b" x="36.996" y="6.488"/><use xlink:href="#3"/><use xlink:href="#4" y="2.171"/><use xlink:href="#5" y="4.342"/><text y="8.183" class="c">[bencinn@archbox</text><text x="17.034" y="8.183" class="c">build]$</text><text x="25.05" y="8.183" class="c">./main</text><text x="32.064" y="8.183" class="c">--deb</text></svg><svg x="3100"><use xlink:href="#a"/><use xlink:href="#b" x="37.996" y="6.488"/><use xlink:href="#3"/><use xlink:href="#4" y="2.171"/><use xlink:href="#5" y="4.342"/><text y="8.183" class="c">[bencinn@archbox</text><text x="17.034" y="8.183" class="c">build]$</text><text x="25.05" y="8.183" class="c">./main</text><text x="32.064" y="8.183" class="c">--debu</text></svg><svg x="3200"><use xlink:href="#a"/><use xlink:href="#b" x="38.996" y="6.488"/><use xlink:href="#3"/><use xlink:href="#4" y="2.171"/><use xlink:href="#5" y="4.342"/><use xlink:href="#7" y="6.513"/></svg><svg x="3300"><use xlink:href="#a"/><use xlink:href="#b" x="39.996" y="6.488"/><use xlink:href="#3"/><use xlink:href="#4" y="2.171"/><use xlink:href="#5" y="4.342"/><use xlink:href="#7" y="6.513"/></svg><svg x="3400"><use xlink:href="#a"/><use xlink:href="#b" x="40.996" y="6.488"/><use xlink:href="#3"/><use xlink:href="#4" y="2.171"/><use xlink:href="#5" y="4.342"/><text y="8.183" class="c">[bencinn@archbox</text><text x="17.034" y="8.183" class="c">build]$</text><text x="25.05" y="8.183" class="c">./main</text><text x="32.064" y="8.183" class="c">--debug</text><text x="40.08" y="8.183" class="c">-</text></svg><svg x="3500"><use xlink:href="#a"/><use xlink:href="#b" x="41.996" y="6.488"/><use xlink:href="#3"/><use xlink:href="#4" y="2.171"/><use xlink:href="#5" y="4.342"/><text y="8.183" class="c">[bencinn@archbox</text><text x="17.034" y="8.183" class="c">build]$</text><text x="25.05" y="8.183" class="c">./main</text><text x="32.064" y="8.183" class="c">--debug</text><text x="40.08" y="8.183" class="c">--</text></svg><svg x="3600"><use xlink:href="#a"/><use xlink:href="#b" x="42.996" y="6.488"/><use xlink:href="#3"/><use xlink:href="#4" y="2.171"/><use xlink:href="#5" y="4.342"/><text y="8.183" class="c">[bencinn@archbox</text><text x="17.034" y="8.183" class="c">build]$</text><text x="25.05" y="8.183" class="c">./main</text><text x="32.064" y="8.183" class="c">--debug</text><text x="40.08" y="8.183" class="c">--f</text></svg><svg x="3700"><use xlink:href="#a"/><use xlink:href="#b" x="43.996" y="6.488"/><use xlink:href="#3"/><use xlink:href="#4" y="2.171"/><use xlink:href="#5" y="4.342"/><text y="8.183" class="c">[bencinn@archbox</text><text x="17.034" y="8.183" class="c">build]$</text><text x="25.05" y="8.183" class="c">./main</text><text x="32.064" y="8.183" class="c">--debug</text><text x="40.08" y="8.183" class="c">--fi</text></svg><svg x="3800"><use xlink:href="#a"/><use xlink:href="#b" x="44.996" y="6.488"/><use xlink:href="#3"/><use xlink:href="#4" y="2.171"/><use xlink:href="#5" y="4.342"/><text y="8.183" class="c">[bencinn@archbox</text><text x="17.034" y="8.183" class="c">build]$</text><text x="25.05" y="8.183" class="c">./main</text><text x="32.064" y="8.183" class="c">--debug</text><text x="40.08" y="8.183" class="c">--fil</text></svg><svg x="3900"><use xlink:href="#a"/><use xlink:href="#b" x="45.996" y="6.488"/><use xlink:href="#3"/><use xlink:href="#4" y="2.171"/><use xlink:href="#5" y="4.342"/><use xlink:href="#8" y="6.513"/></svg><svg x="4000"><use xlink:href="#a"/><use xlink:href="#b" x="46.996" y="6.488"/><use xlink:href="#3"/><use xlink:href="#4" y="2.171"/><use xlink:href="#5" y="4.342"/><use xlink:href="#8" y="6.513"/></svg><svg x="4100"><use xlink:href="#a"/><use xlink:href="#b" x="47.996" y="6.488"/><use xlink:href="#3"/><use xlink:href="#4" y="2.171"/><use xlink:href="#5" y="4.342"/><text y="8.183" class="c">[bencinn@archbox</text><text x="17.034" y="8.183" class="c">build]$</text><text x="25.05" y="8.183" class="c">./main</text><text x="32.064" y="8.183" class="c">--debug</text><text x="40.08" y="8.183" class="c">--file</text><text x="47.094" y="8.183" class="c">c</text></svg><svg x="4200"><use xlink:href="#a"/><use xlink:href="#b" x="48.996" y="6.488"/><use xlink:href="#3"/><use xlink:href="#4" y="2.171"/><use xlink:href="#5" y="4.342"/><text y="8.183" class="c">[bencinn@archbox</text><text x="17.034" y="8.183" class="c">build]$</text><text x="25.05" y="8.183" class="c">./main</text><text x="32.064" y="8.183" class="c">--debug</text><text x="40.08" y="8.183" class="c">--file</text><text x="47.094" y="8.183" class="c">co</text></svg><svg x="4300"><use xlink:href="#a"/><use xlink:href="#b" x="49.996" y="6.488"/><use xlink:href="#3"/><use xlink:href="#4" y="2.171"/><use xlink:href="#5" y="4.342"/><text y="8.183" class="c">[bencinn@archbox</text><text x="17.034" y="8.183" class="c">build]$</text><text x="25.05" y="8.183" class="c">./main</text><text x="32.064" y="8.183" class="c">--debug</text><text x="40.08" y="8.183" class="c">--file</text><text x="47.094" y="8.183" class="c">cod</text></svg><svg x="4400"><use xlink:href="#a"/><use xlink:href="#b" x="50.996" y="6.488"/><use xlink:href="#3"/><use xlink:href="#4" y="2.171"/><use xlink:href="#5" y="4.342"/><text y="8.183" class="c">[bencinn@archbox</text><text x="17.034" y="8.183" class="c">build]$</text><text x="25.05" y="8.183" class="c">./main</text><text x="32.064" y="8.183" class="c">--debug</text><text x="40.08" y="8.183" class="c">--file</text><text x="47.094" y="8.183" class="c">code</text></svg><svg x="4500"><use xlink:href="#a"/><use xlink:href="#b" x="51.996" y="6.488"/><use xlink:href="#3"/><use xlink:href="#4" y="2.171"/><use xlink:href="#5" y="4.342"/><text y="8.183" class="c">[bencinn@archbox</text><text x="17.034" y="8.183" class="c">build]$</text><text x="25.05" y="8.183" class="c">./main</text><text x="32.064" y="8.183" class="c">--debug</text><text x="40.08" y="8.183" class="c">--file</text><text x="47.094" y="8.183" class="c">code.</text></svg><svg x="4600"><use xlink:href="#a"/><use xlink:href="#b" x="52.996" y="6.488"/><use xlink:href="#3"/><use xlink:href="#4" y="2.171"/><use xlink:href="#5" y="4.342"/><text y="8.183" class="c">[bencinn@archbox</text><text x="17.034" y="8.183" class="c">build]$</text><text x="25.05" y="8.183" class="c">./main</text><text x="32.064" y="8.183" class="c">--debug</text><text x="40.08" y="8.183" class="c">--file</text><text x="47.094" y="8.183" class="c">code.t</text></svg><svg x="4700"><use xlink:href="#a"/><use xlink:href="#b" x="53.996" y="6.488"/><use xlink:href="#3"/><use xlink:href="#4" y="2.171"/><use xlink:href="#5" y="4.342"/><text y="8.183" class="c">[bencinn@archbox</text><text x="17.034" y="8.183" class="c">build]$</text><text x="25.05" y="8.183" class="c">./main</text><text x="32.064" y="8.183" class="c">--debug</text><text x="40.08" y="8.183" class="c">--file</text><text x="47.094" y="8.183" class="c">code.te</text></svg><svg x="4800"><use xlink:href="#a"/><use xlink:href="#b" x="54.996" y="6.488"/><use xlink:href="#3"/><use xlink:href="#4" y="2.171"/><use xlink:href="#5" y="4.342"/><use xlink:href="#9" y="6.513"/></svg><svg x="4900"><use xlink:href="#a"/><use xlink:href="#b" x="-.004" y="8.659"/><use xlink:href="#3"/><use xlink:href="#4" y="2.171"/><use xlink:href="#5" y="4.342"/><use xlink:href="#9" y="6.513"/></svg><svg x="5000"><use xlink:href="#a"/><use xlink:href="#b" x="-.004" y="13.001"/><use xlink:href="#3"/><use xlink:href="#4" y="2.171"/><use xlink:href="#5" y="4.342"/><use xlink:href="#9" y="6.513"/><use xlink:href="#10" y="8.684"/><use xlink:href="#11" y="10.855"/></svg><svg x="5100"><use xlink:href="#a"/><use xlink:href="#b" x="-.004" y="23.856"/><use xlink:href="#3"/><use xlink:href="#4" y="2.171"/><use xlink:href="#5" y="4.342"/><use xlink:href="#9" y="6.513"/><use xlink:href="#10" y="8.684"/><use xlink:href="#11" y="10.855"/><use xlink:href="#12" y="13.026"/><use xlink:href="#13" y="17.368"/><use xlink:href="#14" y="21.71"/></svg><svg x="5200"><use xlink:href="#a"/><use xlink:href="#b" x="-.004" y="30.369"/><use xlink:href="#3"/><use xlink:href="#4" y="2.171"/><use xlink:href="#5" y="4.342"/><use xlink:href="#9" y="6.513"/><use xlink:href="#10" y="8.684"/><use xlink:href="#11" y="10.855"/><use xlink:href="#12" y="13.026"/><use xlink:href="#13" y="17.368"/><use xlink:href="#14" y="21.71"/><use xlink:href="#15" y="23.881"/><use xlink:href="#16" y="26.052"/><use xlink:href="#17" y="28.223"/></svg><svg x="5300"><use xlink:href="#a"/><use xlink:href="#b" x="-.004" y="30.369"/><use xlink:href="#3"/><use xlink:href="#4" y="2.171"/><use xlink:href="#5" y="4.342"/><use xlink:href="#9" y="6.513"/><use xlink:href="#10" y="8.684"/><use xlink:href="#11" y="10.855"/><use xlink:href="#12" y="13.026"/><use xlink:href="#13" y="17.368"/><use xlink:href="#14" y="21.71"/><use xlink:href="#15" y="23.881"/><use xlink:href="#16" y="26.052"/><use xlink:href="#17" y="28.223"/></svg><svg x="5400"><use xlink:href="#a"/><use xlink:href="#b" x="24.996" y="30.369"/><use xlink:href="#3"/><use xlink:href="#4" y="2.171"/><use xlink:href="#5" y="4.342"/><use xlink:href="#9" y="6.513"/><use xlink:href="#10" y="8.684"/><use xlink:href="#11" y="10.855"/><use xlink:href="#12" y="13.026"/><use xlink:href="#13" y="17.368"/><use xlink:href="#14" y="21.71"/><use xlink:href="#15" y="23.881"/><use xlink:href="#16" y="26.052"/><use xlink:href="#17" y="28.223"/><use xlink:href="#1" y="30.394"/></svg><svg x="5500"><use xlink:href="#a"/><use xlink:href="#b" x="-.004" y="34.711"/><use xlink:href="#3"/><use xlink:href="#4" y="2.171"/><use xlink:href="#5" y="4.342"/><use xlink:href="#9" y="6.513"/><use xlink:href="#10" y="8.684"/><use xlink:href="#11" y="10.855"/><use xlink:href="#12" y="13.026"/><use xlink:href="#13" y="17.368"/><use xlink:href="#14" y="21.71"/><use xlink:href="#15" y="23.881"/><use xlink:href="#16" y="26.052"/><use xlink:href="#17" y="28.223"/><use xlink:href="#1" y="30.394"/><text y="34.235" class="c">exit</text></svg></svg></g></g></svg></svg>