<svg xmlns="http://www.w3.org/2000/svg" xmlns:xlink="http://www.w3.org/1999/xlink" width="2100" height="1167.21"><rect width="2100" height="1167.21" rx="5" ry="5" class="a"/><svg y="0%" x="0%"><circle cx="20" cy="20" r="6" fill="#ff5f58"/><circle cx="40" cy="20" r="6" fill="#ffbd2e"/><circle cx="60" cy="20" r="6" fill="#18c132"/></svg><svg height="1107.21" viewBox="0 0 206 110.721" width="2060" x="15" xmlns="http://www.w3.org/2000/svg" xmlns:xlink="http://www.w3.org/1999/xlink" y="50"><style>@keyframes w{0%{transform:translateX(0)}.9%{transform:translateX(-206px)}1.5%{transform:translateX(-1030px)}1.6%{transform:translateX(-1648px)}6.6%{transform:translateX(-1854px)}6.7%{transform:translateX(-2060px)}8.2%{transform:translateX(-2266px)}9%{transform:translateX(-2472px)}10.4%{transform:translateX(-2678px)}12.2%{transform:translateX(-2884px)}13.4%{transform:translateX(-3090px)}14.6%{transform:translateX(-3296px)}15.1%{transform:translateX(-3502px)}16.5%{transform:translateX(-3708px)}17.9%{transform:translateX(-3914px)}18.3%{transform:translateX(-4120px)}21.1%{transform:translateX(-4326px)}30%{transform:translateX(-5562px)}30.3%{transform:translateX(-6798px)}30.4%{transform:translateX(-7004px)}41.4%{transform:translateX(-7416px)}42.1%{transform:translateX(-7622px)}43.9%{transform:translateX(-7828px)}45.1%{transform:translateX(-8034px)}45.8%{transform:translateX(-8240px)}47.1%{transform:translateX(-8446px)}56.7%{transform:translateX(-8858px)}61.2%{transform:translateX(-9064px)}62%{transform:translateX(-9270px)}63.4%{transform:translateX(-9476px)}64.3%{transform:translateX(-9682px)}67.1%{transform:translateX(-9888px)}68.3%{transform:translateX(-10094px)}69.7%{transform:translateX(-10300px)}70.8%{transform:translateX(-10712px)}73.1%{transform:translateX(-10918px)}73.9%{transform:translateX(-11124px)}75.1%{transform:translateX(-11330px)}76.1%{transform:translateX(-11536px)}77.6%{transform:translateX(-11742px)}78.3%{transform:translateX(-11948px)}79.5%{transform:translateX(-12360px)}81.6%{transform:translateX(-12566px)}82.3%{transform:translateX(-12772px)}83.2%{transform:translateX(-12978px)}84%{transform:translateX(-13184px)}85.2%{transform:translateX(-13390px)}86.6%{transform:translateX(-13596px)}87%{transform:translateX(-13802px)}88.2%{transform:translateX(-14008px)}91.2%{transform:translateX(-15656px)}91.5%{transform:translateX(-17098px)}to{transform:translateX(-17304px)}}.a{fill:#282d35}.f{fill:gray;white-space:pre}.g{fill:#b9bfca}.h{fill:#080808;white-space:pre}.i{fill:#71bef2}.j,.k,.l{fill:#b9bfca;white-space:pre}.k,.l{fill:#e4e4e4}.l{fill:#eee;font-weight:700}.m{fill:#a8cc8c}.n{fill:#71bef2}.n,.o,.p{white-space:pre}.p{fill:#a8cc8c}.q{fill:#6f7783}.q,.r,.s,.t{white-space:pre}.r{fill:#b9c0cb;text-decoration:underline}.s,.t{fill:#5fd700}.t{fill:#b9c0cb}</style><g font-family="Monaco,Consolas,Menlo,'Bitstream Vera Sans Mono','Powerline Symbols',monospace" font-size="1.67"><defs><symbol id="1"><text y="1.67" class="f">╭─</text><path class="g" d="M2.004 0h3v2.171h-3z"/><text x="2.004" y="1.67" class="h"></text><path class="i" d="M5.01 0h1v2.171h-1z"/><text x="5.01" y="1.67" class="j"></text><path class="i" d="M6.012 0h3v2.171h-3z"/><text x="6.012" y="1.67" class="k"></text><path class="i" d="M9.018 0h1v2.171h-1z"/><text x="9.018" y="1.67" class="l">~</text><path class="i" d="M10.02 0h6v2.171h-6z"/><text x="10.02" y="1.67" class="k">/code/</text><path class="i" d="M16.032 0h3v2.171h-3z"/><text x="16.032" y="1.67" class="l">teo</text><path class="i" d="M19.038 0h1v2.171h-1z"/><text x="19.038" y="1.67" class="k">/</text><path class="i" d="M20.04 0h5v2.171h-5z"/><text x="20.04" y="1.67" class="l">build</text><path class="i" d="M25.05 0h1v2.171h-1z"/><text x="25.05" y="1.67" class="k"></text><path class="m" d="M26.052 0h1v2.171h-1z"/><text x="26.052" y="1.67" class="n"></text><path class="m" d="M27.054 0h10v2.171h-10z"/><text x="27.054" y="1.67" class="o">  main</text><text x="37.074" y="1.67" class="p"></text><text x="38.076" y="1.67" class="f">······················································································································································</text><text x="188.376" y="1.67" class="o"></text>0<text x="189.378" y="1.67" class="p">✔</text></symbol><symbol id="2"><text y="1.67" class="f">╭─</text><path class="g" d="M2.004 0h3v2.171h-3z"/><text x="2.004" y="1.67" class="h"></text><path class="i" d="M5.01 0h1v2.171h-1z"/><text x="5.01" y="1.67" class="j"></text><path class="i" d="M6.012 0h3v2.171h-3z"/><text x="6.012" y="1.67" class="k"></text><path class="i" d="M9.018 0h1v2.171h-1z"/><text x="9.018" y="1.67" class="l">~</text><path class="i" d="M10.02 0h6v2.171h-6z"/><text x="10.02" y="1.67" class="k">/code/</text><path class="i" d="M16.032 0h3v2.171h-3z"/><text x="16.032" y="1.67" class="l">teo</text><path class="i" d="M19.038 0h1v2.171h-1z"/><text x="19.038" y="1.67" class="k">/</text><path class="i" d="M20.04 0h5v2.171h-5z"/><text x="20.04" y="1.67" class="l">build</text><path class="i" d="M25.05 0h1v2.171h-1z"/><text x="25.05" y="1.67" class="k"></text><path class="m" d="M26.052 0h1v2.171h-1z"/><text x="26.052" y="1.67" class="n"></text><path class="m" d="M27.054 0h10v2.171h-10z"/><text x="27.054" y="1.67" class="o">  main</text><text x="37.074" y="1.67" class="p"></text><text x="38.076" y="1.67" class="f">······················································································································································</text><text x="188.376" y="1.67" class="o"></text>0<text x="189.378" y="1.67" class="p">✔</text>0<text x="192.384" y="1.67" class="j"></text><path class="g" d="M193.386 0h12v2.171h-12z"/><text x="193.386" y="1.67" class="o">20:19:33 </text></symbol><symbol id="3"><text y="1.67" class="f">╰─</text></symbol><symbol id="4"><text y="1.67" class="f">╰─</text><text x="3.006" y="1.67" class="p">cat</text><text x="7.014" y="1.67" class="q">code.teo</text></symbol><symbol id="5"><text y="1.67" class="f">╰─</text><text x="3.006" y="1.67" class="p">cat</text><text x="7.014" y="1.67" class="r">code.teo</text></symbol><symbol id="6"><text y="1.67" class="s">❯</text><text x="2.004" y="1.67" class="p">cat</text><text x="6.012" y="1.67" class="r">code.teo</text></symbol><symbol id="7"><text y="1.67" class="t">let</text><text x="4.008" y="1.67" class="t">x</text><text x="6.012" y="1.67" class="t">3;</text></symbol><symbol id="8"><text y="1.67" class="t">print</text><text x="6.012" y="1.67" class="t">x;</text></symbol><symbol id="9"><text y="1.67" class="f">╭─</text><path class="g" d="M2.004 0h3v2.171h-3z"/><text x="2.004" y="1.67" class="h"></text><path class="i" d="M5.01 0h1v2.171h-1z"/><text x="5.01" y="1.67" class="j"></text><path class="i" d="M6.012 0h3v2.171h-3z"/><text x="6.012" y="1.67" class="k"></text><path class="i" d="M9.018 0h1v2.171h-1z"/><text x="9.018" y="1.67" class="l">~</text><path class="i" d="M10.02 0h6v2.171h-6z"/><text x="10.02" y="1.67" class="k">/code/</text><path class="i" d="M16.032 0h3v2.171h-3z"/><text x="16.032" y="1.67" class="l">teo</text><path class="i" d="M19.038 0h1v2.171h-1z"/><text x="19.038" y="1.67" class="k">/</text><path class="i" d="M20.04 0h5v2.171h-5z"/><text x="20.04" y="1.67" class="l">build</text><path class="i" d="M25.05 0h1v2.171h-1z"/><text x="25.05" y="1.67" class="k"></text><path class="m" d="M26.052 0h1v2.171h-1z"/><text x="26.052" y="1.67" class="n"></text><path class="m" d="M27.054 0h10v2.171h-10z"/><text x="27.054" y="1.67" class="o">  main</text><text x="37.074" y="1.67" class="p"></text><text x="38.076" y="1.67" class="f">······················································································································································</text><text x="188.376" y="1.67" class="o"></text>0<text x="189.378" y="1.67" class="p">✔</text>0<text x="192.384" y="1.67" class="j"></text><path class="g" d="M193.386 0h12v2.171h-12z"/><text x="193.386" y="1.67" class="o">20:19:38 </text></symbol><symbol id="10"><text y="1.67" class="f">╰─</text><text x="3.006" y="1.67" class="p">./main</text><text x="10.02" y="1.67" class="q">--debug</text><text x="18.036" y="1.67" class="q">--file</text><text x="25.05" y="1.67" class="q">code.teo</text></symbol><symbol id="11"><text y="1.67" class="f">╰─</text><text x="3.006" y="1.67" class="p">./main</text><text x="10.02" y="1.67" class="t">--debug</text><text x="18.036" y="1.67" class="q">--file</text><text x="25.05" y="1.67" class="q">code.teo</text></symbol><symbol id="12"><text y="1.67" class="f">╰─</text><text x="3.006" y="1.67" class="p">./main</text><text x="10.02" y="1.67" class="t">--debug</text><text x="18.036" y="1.67" class="t">--file</text><text x="25.05" y="1.67" class="q">code.teo</text></symbol><symbol id="13"><text y="1.67" class="f">╰─</text><text x="3.006" y="1.67" class="p">./main</text><text x="10.02" y="1.67" class="t">--debug</text><text x="18.036" y="1.67" class="t">--file</text><text x="25.05" y="1.67" class="r">code.teo</text></symbol><symbol id="14"><text y="1.67" class="s">❯</text><text x="2.004" y="1.67" class="p">./main</text><text x="9.018" y="1.67" class="t">--debug</text><text x="17.034" y="1.67" class="t">--file</text><text x="24.048" y="1.67" class="r">code.teo</text></symbol><symbol id="15"><text y="1.67" class="t">Compiled</text><text x="9.018" y="1.67" class="t">at</text><text x="12.024" y="1.67" class="t">Dec</text><text x="16.032" y="1.67" class="t">25</text><text x="19.038" y="1.67" class="t">2022,</text><text x="25.05" y="1.67" class="t">19:10:53.</text></symbol><symbol id="16"><text y="1.67" class="t">Git</text><text x="4.008" y="1.67" class="t">ref:</text><text x="9.018" y="1.67" class="t">dc46252</text></symbol><symbol id="17"><text y="1.67" class="t">&gt;&gt;</text><text x="3.006" y="1.67" class="t">let</text><text x="7.014" y="1.67" class="t">x</text><text x="9.018" y="1.67" class="t">3</text></symbol><symbol id="18"><text y="1.67" class="t">&gt;&gt;</text><text x="3.006" y="1.67" class="t">print</text><text x="9.018" y="1.67" class="t">x</text></symbol><symbol id="19"><text y="1.67" class="t">Running</text><text x="8.016" y="1.67" class="t">&apos;let</text><text x="13.026" y="1.67" class="t">x</text><text x="15.03" y="1.67" class="t">3&apos;</text></symbol><symbol id="20"><text y="1.67" class="t">Variable</text><text x="9.018" y="1.67" class="t">&apos;x&apos;</text><text x="13.026" y="1.67" class="t">set</text><text x="17.034" y="1.67" class="t">to</text><text x="20.04" y="1.67" class="t">3</text></symbol><symbol id="21"><text y="1.67" class="t">Running</text><text x="8.016" y="1.67" class="t">&apos;print</text><text x="15.03" y="1.67" class="t">x&apos;</text></symbol><symbol id="22"><text y="1.67" class="t">3</text></symbol><symbol id="23"><text y="1.67" class="f">╭─</text><path class="g" d="M2.004 0h3v2.171h-3z"/><text x="2.004" y="1.67" class="h"></text><path class="i" d="M5.01 0h1v2.171h-1z"/><text x="5.01" y="1.67" class="j"></text><path class="i" d="M6.012 0h3v2.171h-3z"/><text x="6.012" y="1.67" class="k"></text><path class="i" d="M9.018 0h1v2.171h-1z"/><text x="9.018" y="1.67" class="l">~</text><path class="i" d="M10.02 0h6v2.171h-6z"/><text x="10.02" y="1.67" class="k">/code/</text><path class="i" d="M16.032 0h3v2.171h-3z"/><text x="16.032" y="1.67" class="l">teo</text><path class="i" d="M19.038 0h1v2.171h-1z"/><text x="19.038" y="1.67" class="k">/</text><path class="i" d="M20.04 0h5v2.171h-5z"/><text x="20.04" y="1.67" class="l">build</text><path class="i" d="M25.05 0h1v2.171h-1z"/><text x="25.05" y="1.67" class="k"></text><path class="m" d="M26.052 0h1v2.171h-1z"/><text x="26.052" y="1.67" class="n"></text><path class="m" d="M27.054 0h10v2.171h-10z"/><text x="27.054" y="1.67" class="o">  main</text><text x="37.074" y="1.67" class="p"></text><text x="38.076" y="1.67" class="f">······················································································································································</text><text x="188.376" y="1.67" class="o"></text>0<text x="189.378" y="1.67" class="p">✔</text>0<text x="192.384" y="1.67" class="j"></text><path class="g" d="M193.386 0h12v2.171h-12z"/><text x="193.386" y="1.67" class="o">20:19:48 </text></symbol><symbol id="a"><path fill="transparent" d="M0 0h206v51H0z"/></symbol><symbol id="b"><path fill="#6f7683" d="M0 0h1.102v2.171H0z"/></symbol></defs><path class="a" d="M0 0h206v110.721H0z"/><g style="animation-duration:16.483827s;animation-iteration-count:infinite;animation-name:w;animation-timing-function:steps(1,end)"><svg width="17510"><svg><use xlink:href="#a"/><use xlink:href="#b" x="-.004"/></svg><svg x="206"><use xlink:href="#a"/><use xlink:href="#b" x="-.004"/></svg><svg x="412"><use xlink:href="#a"/><use xlink:href="#b" x="191.996"/><use xlink:href="#1"/></svg><svg x="618"><use xlink:href="#a"/><use xlink:href="#b" x="2.996" y="2.146"/><use xlink:href="#2"/><use xlink:href="#3" y="2.171"/></svg><svg x="824"><use xlink:href="#a"/><use xlink:href="#b" x="2.996" y="2.146"/><use xlink:href="#2"/><use xlink:href="#3" y="2.171"/></svg><svg x="1030"><use xlink:href="#a"/><use xlink:href="#b" x="2.996" y="2.146"/><use xlink:href="#2"/><use xlink:href="#3" y="2.171"/></svg><svg x="1236"><use xlink:href="#a"/><use xlink:href="#b" x="191.996"/><use xlink:href="#1"/></svg><svg x="1442"><use xlink:href="#a"/><use xlink:href="#b" x="2.996" y="2.146"/><use xlink:href="#2"/><use xlink:href="#3" y="2.171"/></svg><svg x="1648"><use xlink:href="#a"/><use xlink:href="#b" x="2.996" y="2.146"/><use xlink:href="#2"/><use xlink:href="#3" y="2.171"/></svg><svg x="1854"><use xlink:href="#a"/><use xlink:href="#b" x="3.996" y="2.146"/><use xlink:href="#2"/><text y="3.841" class="f">╰─</text><text x="3.006" y="3.841" class="r">c</text></svg><svg x="2060"><use xlink:href="#a"/><use xlink:href="#b" x="3.996" y="2.146"/><use xlink:href="#2"/><text y="3.841" class="f">╰─</text><text x="3.006" y="3.841" class="r">c</text><text x="4.008" y="3.841" class="q">at</text><text x="7.014" y="3.841" class="q">code.teo</text></svg><svg x="2266"><use xlink:href="#a"/><use xlink:href="#b" x="4.996" y="2.146"/><use xlink:href="#2"/><text y="3.841" class="f">╰─</text><text x="3.006" y="3.841" style="white-space:pre" fill="#e88388" font-weight="700">ca</text><text x="5.01" y="3.841" class="q">t</text><text x="7.014" y="3.841" class="q">code.teo</text></svg><svg x="2472"><use xlink:href="#a"/><use xlink:href="#b" x="5.996" y="2.146"/><use xlink:href="#2"/><use xlink:href="#4" y="2.171"/></svg><svg x="2678"><use xlink:href="#a"/><use xlink:href="#b" x="6.996" y="2.146"/><use xlink:href="#2"/><use xlink:href="#4" y="2.171"/></svg><svg x="2884"><use xlink:href="#a"/><use xlink:href="#b" x="7.996" y="2.146"/><use xlink:href="#2"/><text y="3.841" class="f">╰─</text><text x="3.006" y="3.841" class="p">cat</text><text x="7.014" y="3.841" class="r">c</text><text x="8.016" y="3.841" class="q">ode.teo</text></svg><svg x="3090"><use xlink:href="#a"/><use xlink:href="#b" x="8.996" y="2.146"/><use xlink:href="#2"/><text y="3.841" class="f">╰─</text><text x="3.006" y="3.841" class="p">cat</text><text x="7.014" y="3.841" class="r">co</text><text x="9.018" y="3.841" class="q">de.teo</text></svg><svg x="3296"><use xlink:href="#a"/><use xlink:href="#b" x="9.996" y="2.146"/><use xlink:href="#2"/><text y="3.841" class="f">╰─</text><text x="3.006" y="3.841" class="p">cat</text><text x="7.014" y="3.841" class="r">cod</text><text x="10.02" y="3.841" class="q">e.teo</text></svg><svg x="3502"><use xlink:href="#a"/><use xlink:href="#b" x="10.996" y="2.146"/><use xlink:href="#2"/><text y="3.841" class="f">╰─</text><text x="3.006" y="3.841" class="p">cat</text><text x="7.014" y="3.841" class="r">code</text><text x="11.022" y="3.841" class="q">.teo</text></svg><svg x="3708"><use xlink:href="#a"/><use xlink:href="#b" x="11.996" y="2.146"/><use xlink:href="#2"/><text y="3.841" class="f">╰─</text><text x="3.006" y="3.841" class="p">cat</text><text x="7.014" y="3.841" class="r">code.</text><text x="12.024" y="3.841" class="q">teo</text></svg><svg x="3914"><use xlink:href="#a"/><use xlink:href="#b" x="12.996" y="2.146"/><use xlink:href="#2"/><text y="3.841" class="f">╰─</text><text x="3.006" y="3.841" class="p">cat</text><text x="7.014" y="3.841" class="r">code.t</text><text x="13.026" y="3.841" class="q">eo</text></svg><svg x="4120"><use xlink:href="#a"/><use xlink:href="#b" x="13.996" y="2.146"/><use xlink:href="#2"/><text y="3.841" class="f">╰─</text><text x="3.006" y="3.841" class="p">cat</text><text x="7.014" y="3.841" class="r">code.te</text><text x="14.028" y="3.841" class="q">o</text></svg><svg x="4326"><use xlink:href="#a"/><use xlink:href="#b" x="14.996" y="2.146"/><use xlink:href="#2"/><use xlink:href="#5" y="2.171"/></svg><svg x="4532"><use xlink:href="#a"/><use xlink:href="#b" x="14.996" y="2.146"/><use xlink:href="#2"/><use xlink:href="#5" y="2.171"/></svg><svg x="4738"><use xlink:href="#a"/><use xlink:href="#2"/><use xlink:href="#5" y="2.171"/></svg><svg x="4944"><use xlink:href="#a"/><use xlink:href="#b" x="13.996"/><use xlink:href="#6"/></svg><svg x="5150"><use xlink:href="#a"/><use xlink:href="#b" x="-.004" y="2.146"/><use xlink:href="#6"/></svg><svg x="5356"><use xlink:href="#a"/><use xlink:href="#b" x="-.004" y="6.488"/><use xlink:href="#6"/><use xlink:href="#7" y="2.171"/><use xlink:href="#8" y="4.342"/></svg><svg x="5562"><use xlink:href="#a"/><use xlink:href="#b" x="-.004" y="6.488"/><use xlink:href="#6"/><use xlink:href="#7" y="2.171"/><use xlink:href="#8" y="4.342"/></svg><svg x="5768"><use xlink:href="#a"/><use xlink:href="#b" x="191.996" y="8.659"/><use xlink:href="#6"/><use xlink:href="#7" y="2.171"/><use xlink:href="#8" y="4.342"/><use xlink:href="#1" y="8.684"/></svg><svg x="5974"><use xlink:href="#a"/><use xlink:href="#b" x="2.996" y="10.83"/><use xlink:href="#6"/><use xlink:href="#7" y="2.171"/><use xlink:href="#8" y="4.342"/><use xlink:href="#9" y="8.684"/><use xlink:href="#3" y="10.855"/></svg><svg x="6180"><use xlink:href="#a"/><use xlink:href="#b" x="2.996" y="10.83"/><use xlink:href="#6"/><use xlink:href="#7" y="2.171"/><use xlink:href="#8" y="4.342"/><use xlink:href="#9" y="8.684"/><use xlink:href="#3" y="10.855"/></svg><svg x="6386"><use xlink:href="#a"/><use xlink:href="#b" x="2.996" y="10.83"/><use xlink:href="#6"/><use xlink:href="#7" y="2.171"/><use xlink:href="#8" y="4.342"/><use xlink:href="#9" y="8.684"/><use xlink:href="#3" y="10.855"/></svg><svg x="6592"><use xlink:href="#a"/><use xlink:href="#b" x="191.996" y="8.659"/><use xlink:href="#6"/><use xlink:href="#7" y="2.171"/><use xlink:href="#8" y="4.342"/><use xlink:href="#1" y="8.684"/></svg><svg x="6798"><use xlink:href="#a"/><use xlink:href="#b" x="2.996" y="10.83"/><use xlink:href="#6"/><use xlink:href="#7" y="2.171"/><use xlink:href="#8" y="4.342"/><use xlink:href="#9" y="8.684"/><use xlink:href="#3" y="10.855"/></svg><svg x="7004"><use xlink:href="#a"/><use xlink:href="#b" x="2.996" y="10.83"/><use xlink:href="#6"/><use xlink:href="#7" y="2.171"/><use xlink:href="#8" y="4.342"/><use xlink:href="#9" y="8.684"/><use xlink:href="#3" y="10.855"/></svg><svg x="7210"><use xlink:href="#a"/><use xlink:href="#b" x="3.996" y="10.83"/><use xlink:href="#6"/><use xlink:href="#7" y="2.171"/><use xlink:href="#8" y="4.342"/><use xlink:href="#9" y="8.684"/><text y="12.525" class="f">╰─</text><text x="3.006" y="12.525" class="p">.</text></svg><svg x="7416"><use xlink:href="#a"/><use xlink:href="#b" x="3.996" y="10.83"/><use xlink:href="#6"/><use xlink:href="#7" y="2.171"/><use xlink:href="#8" y="4.342"/><use xlink:href="#9" y="8.684"/><text y="12.525" class="f">╰─</text><text x="3.006" y="12.525" class="p">.</text><text x="4.008" y="12.525" class="q">/main</text><text x="10.02" y="12.525" class="q">--debug</text><text x="18.036" y="12.525" class="q">--file</text><text x="25.05" y="12.525" class="q">code.teo</text></svg><svg x="7622"><use xlink:href="#a"/><use xlink:href="#b" x="4.996" y="10.83"/><use xlink:href="#6"/><use xlink:href="#7" y="2.171"/><use xlink:href="#8" y="4.342"/><use xlink:href="#9" y="8.684"/><text y="12.525" class="f">╰─</text><text x="3.006" y="12.525" class="r">./</text><text x="5.01" y="12.525" class="q">main</text><text x="10.02" y="12.525" class="q">--debug</text><text x="18.036" y="12.525" class="q">--file</text><text x="25.05" y="12.525" class="q">code.teo</text></svg><svg x="7828"><use xlink:href="#a"/><use xlink:href="#b" x="5.996" y="10.83"/><use xlink:href="#6"/><use xlink:href="#7" y="2.171"/><use xlink:href="#8" y="4.342"/><use xlink:href="#9" y="8.684"/><text y="12.525" class="f">╰─</text><text x="3.006" y="12.525" class="r">./m</text><text x="6.012" y="12.525" class="q">ain</text><text x="10.02" y="12.525" class="q">--debug</text><text x="18.036" y="12.525" class="q">--file</text><text x="25.05" y="12.525" class="q">code.teo</text></svg><svg x="8034"><use xlink:href="#a"/><use xlink:href="#b" x="6.996" y="10.83"/><use xlink:href="#6"/><use xlink:href="#7" y="2.171"/><use xlink:href="#8" y="4.342"/><use xlink:href="#9" y="8.684"/><text y="12.525" class="f">╰─</text><text x="3.006" y="12.525" class="r">./ma</text><text x="7.014" y="12.525" class="q">in</text><text x="10.02" y="12.525" class="q">--debug</text><text x="18.036" y="12.525" class="q">--file</text><text x="25.05" y="12.525" class="q">code.teo</text></svg><svg x="8240"><use xlink:href="#a"/><use xlink:href="#b" x="7.996" y="10.83"/><use xlink:href="#6"/><use xlink:href="#7" y="2.171"/><use xlink:href="#8" y="4.342"/><use xlink:href="#9" y="8.684"/><text y="12.525" class="f">╰─</text><text x="3.006" y="12.525" class="r">./mai</text><text x="8.016" y="12.525" class="q">n</text><text x="10.02" y="12.525" class="q">--debug</text><text x="18.036" y="12.525" class="q">--file</text><text x="25.05" y="12.525" class="q">code.teo</text></svg><svg x="8446"><use xlink:href="#a"/><use xlink:href="#b" x="8.996" y="10.83"/><use xlink:href="#6"/><use xlink:href="#7" y="2.171"/><use xlink:href="#8" y="4.342"/><use xlink:href="#9" y="8.684"/><use xlink:href="#10" y="10.855"/></svg><svg x="8652"><use xlink:href="#a"/><use xlink:href="#b" x="9.996" y="10.83"/><use xlink:href="#6"/><use xlink:href="#7" y="2.171"/><use xlink:href="#8" y="4.342"/><use xlink:href="#9" y="8.684"/><text y="12.525" class="f">╰─</text><text x="3.006" y="12.525" class="p">./main</text></svg><svg x="8858"><use xlink:href="#a"/><use xlink:href="#b" x="9.996" y="10.83"/><use xlink:href="#6"/><use xlink:href="#7" y="2.171"/><use xlink:href="#8" y="4.342"/><use xlink:href="#9" y="8.684"/><use xlink:href="#10" y="10.855"/></svg><svg x="9064"><use xlink:href="#a"/><use xlink:href="#b" x="10.996" y="10.83"/><use xlink:href="#6"/><use xlink:href="#7" y="2.171"/><use xlink:href="#8" y="4.342"/><use xlink:href="#9" y="8.684"/><text y="12.525" class="f">╰─</text><text x="3.006" y="12.525" class="p">./main</text><text x="10.02" y="12.525" class="t">-</text><text x="11.022" y="12.525" class="q">-debug</text><text x="18.036" y="12.525" class="q">--file</text><text x="25.05" y="12.525" class="q">code.teo</text></svg><svg x="9270"><use xlink:href="#a"/><use xlink:href="#b" x="11.996" y="10.83"/><use xlink:href="#6"/><use xlink:href="#7" y="2.171"/><use xlink:href="#8" y="4.342"/><use xlink:href="#9" y="8.684"/><text y="12.525" class="f">╰─</text><text x="3.006" y="12.525" class="p">./main</text><text x="10.02" y="12.525" class="t">--</text><text x="12.024" y="12.525" class="q">debug</text><text x="18.036" y="12.525" class="q">--file</text><text x="25.05" y="12.525" class="q">code.teo</text></svg><svg x="9476"><use xlink:href="#a"/><use xlink:href="#b" x="12.996" y="10.83"/><use xlink:href="#6"/><use xlink:href="#7" y="2.171"/><use xlink:href="#8" y="4.342"/><use xlink:href="#9" y="8.684"/><text y="12.525" class="f">╰─</text><text x="3.006" y="12.525" class="p">./main</text><text x="10.02" y="12.525" class="t">--d</text><text x="13.026" y="12.525" class="q">ebug</text><text x="18.036" y="12.525" class="q">--file</text><text x="25.05" y="12.525" class="q">code.teo</text></svg><svg x="9682"><use xlink:href="#a"/><use xlink:href="#b" x="13.996" y="10.83"/><use xlink:href="#6"/><use xlink:href="#7" y="2.171"/><use xlink:href="#8" y="4.342"/><use xlink:href="#9" y="8.684"/><text y="12.525" class="f">╰─</text><text x="3.006" y="12.525" class="p">./main</text><text x="10.02" y="12.525" class="t">--de</text><text x="14.028" y="12.525" class="q">bug</text><text x="18.036" y="12.525" class="q">--file</text><text x="25.05" y="12.525" class="q">code.teo</text></svg><svg x="9888"><use xlink:href="#a"/><use xlink:href="#b" x="14.996" y="10.83"/><use xlink:href="#6"/><use xlink:href="#7" y="2.171"/><use xlink:href="#8" y="4.342"/><use xlink:href="#9" y="8.684"/><text y="12.525" class="f">╰─</text><text x="3.006" y="12.525" class="p">./main</text><text x="10.02" y="12.525" class="t">--deb</text><text x="15.03" y="12.525" class="q">ug</text><text x="18.036" y="12.525" class="q">--file</text><text x="25.05" y="12.525" class="q">code.teo</text></svg><svg x="10094"><use xlink:href="#a"/><use xlink:href="#b" x="15.996" y="10.83"/><use xlink:href="#6"/><use xlink:href="#7" y="2.171"/><use xlink:href="#8" y="4.342"/><use xlink:href="#9" y="8.684"/><text y="12.525" class="f">╰─</text><text x="3.006" y="12.525" class="p">./main</text><text x="10.02" y="12.525" class="t">--debu</text><text x="16.032" y="12.525" class="q">g</text><text x="18.036" y="12.525" class="q">--file</text><text x="25.05" y="12.525" class="q">code.teo</text></svg><svg x="10300"><use xlink:href="#a"/><use xlink:href="#b" x="16.996" y="10.83"/><use xlink:href="#6"/><use xlink:href="#7" y="2.171"/><use xlink:href="#8" y="4.342"/><use xlink:href="#9" y="8.684"/><use xlink:href="#11" y="10.855"/></svg><svg x="10506"><use xlink:href="#a"/><use xlink:href="#b" x="17.996" y="10.83"/><use xlink:href="#6"/><use xlink:href="#7" y="2.171"/><use xlink:href="#8" y="4.342"/><use xlink:href="#9" y="8.684"/><text y="12.525" class="f">╰─</text><text x="3.006" y="12.525" class="p">./main</text><text x="10.02" y="12.525" class="t">--debug</text></svg><svg x="10712"><use xlink:href="#a"/><use xlink:href="#b" x="17.996" y="10.83"/><use xlink:href="#6"/><use xlink:href="#7" y="2.171"/><use xlink:href="#8" y="4.342"/><use xlink:href="#9" y="8.684"/><use xlink:href="#11" y="10.855"/></svg><svg x="10918"><use xlink:href="#a"/><use xlink:href="#b" x="18.996" y="10.83"/><use xlink:href="#6"/><use xlink:href="#7" y="2.171"/><use xlink:href="#8" y="4.342"/><use xlink:href="#9" y="8.684"/><text y="12.525" class="f">╰─</text><text x="3.006" y="12.525" class="p">./main</text><text x="10.02" y="12.525" class="t">--debug</text><text x="18.036" y="12.525" class="t">-</text><text x="19.038" y="12.525" class="q">-file</text><text x="25.05" y="12.525" class="q">code.teo</text></svg><svg x="11124"><use xlink:href="#a"/><use xlink:href="#b" x="19.996" y="10.83"/><use xlink:href="#6"/><use xlink:href="#7" y="2.171"/><use xlink:href="#8" y="4.342"/><use xlink:href="#9" y="8.684"/><text y="12.525" class="f">╰─</text><text x="3.006" y="12.525" class="p">./main</text><text x="10.02" y="12.525" class="t">--debug</text><text x="18.036" y="12.525" class="t">--</text><text x="20.04" y="12.525" class="q">file</text><text x="25.05" y="12.525" class="q">code.teo</text></svg><svg x="11330"><use xlink:href="#a"/><use xlink:href="#b" x="20.996" y="10.83"/><use xlink:href="#6"/><use xlink:href="#7" y="2.171"/><use xlink:href="#8" y="4.342"/><use xlink:href="#9" y="8.684"/><text y="12.525" class="f">╰─</text><text x="3.006" y="12.525" class="p">./main</text><text x="10.02" y="12.525" class="t">--debug</text><text x="18.036" y="12.525" class="t">--f</text><text x="21.042" y="12.525" class="q">ile</text><text x="25.05" y="12.525" class="q">code.teo</text></svg><svg x="11536"><use xlink:href="#a"/><use xlink:href="#b" x="21.996" y="10.83"/><use xlink:href="#6"/><use xlink:href="#7" y="2.171"/><use xlink:href="#8" y="4.342"/><use xlink:href="#9" y="8.684"/><text y="12.525" class="f">╰─</text><text x="3.006" y="12.525" class="p">./main</text><text x="10.02" y="12.525" class="t">--debug</text><text x="18.036" y="12.525" class="t">--fi</text><text x="22.044" y="12.525" class="q">le</text><text x="25.05" y="12.525" class="q">code.teo</text></svg><svg x="11742"><use xlink:href="#a"/><use xlink:href="#b" x="22.996" y="10.83"/><use xlink:href="#6"/><use xlink:href="#7" y="2.171"/><use xlink:href="#8" y="4.342"/><use xlink:href="#9" y="8.684"/><text y="12.525" class="f">╰─</text><text x="3.006" y="12.525" class="p">./main</text><text x="10.02" y="12.525" class="t">--debug</text><text x="18.036" y="12.525" class="t">--fil</text><text x="23.046" y="12.525" class="q">e</text><text x="25.05" y="12.525" class="q">code.teo</text></svg><svg x="11948"><use xlink:href="#a"/><use xlink:href="#b" x="23.996" y="10.83"/><use xlink:href="#6"/><use xlink:href="#7" y="2.171"/><use xlink:href="#8" y="4.342"/><use xlink:href="#9" y="8.684"/><use xlink:href="#12" y="10.855"/></svg><svg x="12154"><use xlink:href="#a"/><use xlink:href="#b" x="24.996" y="10.83"/><use xlink:href="#6"/><use xlink:href="#7" y="2.171"/><use xlink:href="#8" y="4.342"/><use xlink:href="#9" y="8.684"/><text y="12.525" class="f">╰─</text><text x="3.006" y="12.525" class="p">./main</text><text x="10.02" y="12.525" class="t">--debug</text><text x="18.036" y="12.525" class="t">--file</text></svg><svg x="12360"><use xlink:href="#a"/><use xlink:href="#b" x="24.996" y="10.83"/><use xlink:href="#6"/><use xlink:href="#7" y="2.171"/><use xlink:href="#8" y="4.342"/><use xlink:href="#9" y="8.684"/><use xlink:href="#12" y="10.855"/></svg><svg x="12566"><use xlink:href="#a"/><use xlink:href="#b" x="25.996" y="10.83"/><use xlink:href="#6"/><use xlink:href="#7" y="2.171"/><use xlink:href="#8" y="4.342"/><use xlink:href="#9" y="8.684"/><text y="12.525" class="f">╰─</text><text x="3.006" y="12.525" class="p">./main</text><text x="10.02" y="12.525" class="t">--debug</text><text x="18.036" y="12.525" class="t">--file</text><text x="25.05" y="12.525" class="r">c</text><text x="26.052" y="12.525" class="q">ode.teo</text></svg><svg x="12772"><use xlink:href="#a"/><use xlink:href="#b" x="26.996" y="10.83"/><use xlink:href="#6"/><use xlink:href="#7" y="2.171"/><use xlink:href="#8" y="4.342"/><use xlink:href="#9" y="8.684"/><text y="12.525" class="f">╰─</text><text x="3.006" y="12.525" class="p">./main</text><text x="10.02" y="12.525" class="t">--debug</text><text x="18.036" y="12.525" class="t">--file</text><text x="25.05" y="12.525" class="r">co</text><text x="27.054" y="12.525" class="q">de.teo</text></svg><svg x="12978"><use xlink:href="#a"/><use xlink:href="#b" x="27.996" y="10.83"/><use xlink:href="#6"/><use xlink:href="#7" y="2.171"/><use xlink:href="#8" y="4.342"/><use xlink:href="#9" y="8.684"/><text y="12.525" class="f">╰─</text><text x="3.006" y="12.525" class="p">./main</text><text x="10.02" y="12.525" class="t">--debug</text><text x="18.036" y="12.525" class="t">--file</text><text x="25.05" y="12.525" class="r">cod</text><text x="28.056" y="12.525" class="q">e.teo</text></svg><svg x="13184"><use xlink:href="#a"/><use xlink:href="#b" x="28.996" y="10.83"/><use xlink:href="#6"/><use xlink:href="#7" y="2.171"/><use xlink:href="#8" y="4.342"/><use xlink:href="#9" y="8.684"/><text y="12.525" class="f">╰─</text><text x="3.006" y="12.525" class="p">./main</text><text x="10.02" y="12.525" class="t">--debug</text><text x="18.036" y="12.525" class="t">--file</text><text x="25.05" y="12.525" class="r">code</text><text x="29.058" y="12.525" class="q">.teo</text></svg><svg x="13390"><use xlink:href="#a"/><use xlink:href="#b" x="29.996" y="10.83"/><use xlink:href="#6"/><use xlink:href="#7" y="2.171"/><use xlink:href="#8" y="4.342"/><use xlink:href="#9" y="8.684"/><text y="12.525" class="f">╰─</text><text x="3.006" y="12.525" class="p">./main</text><text x="10.02" y="12.525" class="t">--debug</text><text x="18.036" y="12.525" class="t">--file</text><text x="25.05" y="12.525" class="r">code.</text><text x="30.06" y="12.525" class="q">teo</text></svg><svg x="13596"><use xlink:href="#a"/><use xlink:href="#b" x="30.996" y="10.83"/><use xlink:href="#6"/><use xlink:href="#7" y="2.171"/><use xlink:href="#8" y="4.342"/><use xlink:href="#9" y="8.684"/><text y="12.525" class="f">╰─</text><text x="3.006" y="12.525" class="p">./main</text><text x="10.02" y="12.525" class="t">--debug</text><text x="18.036" y="12.525" class="t">--file</text><text x="25.05" y="12.525" class="r">code.t</text><text x="31.062" y="12.525" class="q">eo</text></svg><svg x="13802"><use xlink:href="#a"/><use xlink:href="#b" x="31.996" y="10.83"/><use xlink:href="#6"/><use xlink:href="#7" y="2.171"/><use xlink:href="#8" y="4.342"/><use xlink:href="#9" y="8.684"/><text y="12.525" class="f">╰─</text><text x="3.006" y="12.525" class="p">./main</text><text x="10.02" y="12.525" class="t">--debug</text><text x="18.036" y="12.525" class="t">--file</text><text x="25.05" y="12.525" class="r">code.te</text><text x="32.064" y="12.525" class="q">o</text></svg><svg x="14008"><use xlink:href="#a"/><use xlink:href="#b" x="32.996" y="10.83"/><use xlink:href="#6"/><use xlink:href="#7" y="2.171"/><use xlink:href="#8" y="4.342"/><use xlink:href="#9" y="8.684"/><use xlink:href="#13" y="10.855"/></svg><svg x="14214"><use xlink:href="#a"/><use xlink:href="#b" x="32.996" y="10.83"/><use xlink:href="#6"/><use xlink:href="#7" y="2.171"/><use xlink:href="#8" y="4.342"/><use xlink:href="#9" y="8.684"/><use xlink:href="#13" y="10.855"/></svg><svg x="14420"><use xlink:href="#a"/><use xlink:href="#6"/><use xlink:href="#7" y="2.171"/><use xlink:href="#8" y="4.342"/><use xlink:href="#9" y="8.684"/><use xlink:href="#13" y="10.855"/></svg><svg x="14626"><use xlink:href="#a"/><use xlink:href="#b" x="31.996" y="6.488"/><use xlink:href="#6"/><use xlink:href="#7" y="2.171"/><use xlink:href="#8" y="4.342"/><use xlink:href="#14" y="6.513"/></svg><svg x="14832"><use xlink:href="#a"/><use xlink:href="#b" x="-.004" y="8.659"/><use xlink:href="#6"/><use xlink:href="#7" y="2.171"/><use xlink:href="#8" y="4.342"/><use xlink:href="#14" y="6.513"/></svg><svg x="15038"><use xlink:href="#a"/><use xlink:href="#b" x="-.004" y="13.001"/><use xlink:href="#6"/><use xlink:href="#7" y="2.171"/><use xlink:href="#8" y="4.342"/><use xlink:href="#14" y="6.513"/><use xlink:href="#15" y="8.684"/><use xlink:href="#16" y="10.855"/></svg><svg x="15244"><use xlink:href="#a"/><use xlink:href="#b" x="-.004" y="28.198"/><use xlink:href="#6"/><use xlink:href="#7" y="2.171"/><use xlink:href="#8" y="4.342"/><use xlink:href="#14" y="6.513"/><use xlink:href="#15" y="8.684"/><use xlink:href="#16" y="10.855"/><use xlink:href="#17" y="13.026"/><use xlink:href="#18" y="17.368"/><use xlink:href="#19" y="21.71"/><use xlink:href="#20" y="23.881"/><use xlink:href="#21" y="26.052"/></svg><svg x="15450"><use xlink:href="#a"/><use xlink:href="#b" x="-.004" y="30.369"/><use xlink:href="#6"/><use xlink:href="#7" y="2.171"/><use xlink:href="#8" y="4.342"/><use xlink:href="#14" y="6.513"/><use xlink:href="#15" y="8.684"/><use xlink:href="#16" y="10.855"/><use xlink:href="#17" y="13.026"/><use xlink:href="#18" y="17.368"/><use xlink:href="#19" y="21.71"/><use xlink:href="#20" y="23.881"/><use xlink:href="#21" y="26.052"/><use xlink:href="#22" y="28.223"/></svg><svg x="15656"><use xlink:href="#a"/><use xlink:href="#b" x="-.004" y="30.369"/><use xlink:href="#6"/><use xlink:href="#7" y="2.171"/><use xlink:href="#8" y="4.342"/><use xlink:href="#14" y="6.513"/><use xlink:href="#15" y="8.684"/><use xlink:href="#16" y="10.855"/><use xlink:href="#17" y="13.026"/><use xlink:href="#18" y="17.368"/><use xlink:href="#19" y="21.71"/><use xlink:href="#20" y="23.881"/><use xlink:href="#21" y="26.052"/><use xlink:href="#22" y="28.223"/></svg><svg x="15862"><use xlink:href="#a"/><use xlink:href="#b" x="191.996" y="32.54"/><use xlink:href="#6"/><use xlink:href="#7" y="2.171"/><use xlink:href="#8" y="4.342"/><use xlink:href="#14" y="6.513"/><use xlink:href="#15" y="8.684"/><use xlink:href="#16" y="10.855"/><use xlink:href="#17" y="13.026"/><use xlink:href="#18" y="17.368"/><use xlink:href="#19" y="21.71"/><use xlink:href="#20" y="23.881"/><use xlink:href="#21" y="26.052"/><use xlink:href="#22" y="28.223"/><use xlink:href="#1" y="32.565"/></svg><svg x="16068"><use xlink:href="#a"/><use xlink:href="#b" x="2.996" y="34.711"/><use xlink:href="#6"/><use xlink:href="#7" y="2.171"/><use xlink:href="#8" y="4.342"/><use xlink:href="#14" y="6.513"/><use xlink:href="#15" y="8.684"/><use xlink:href="#16" y="10.855"/><use xlink:href="#17" y="13.026"/><use xlink:href="#18" y="17.368"/><use xlink:href="#19" y="21.71"/><use xlink:href="#20" y="23.881"/><use xlink:href="#21" y="26.052"/><use xlink:href="#22" y="28.223"/><use xlink:href="#23" y="32.565"/><use xlink:href="#3" y="34.736"/></svg><svg x="16274"><use xlink:href="#a"/><use xlink:href="#b" x="2.996" y="34.711"/><use xlink:href="#6"/><use xlink:href="#7" y="2.171"/><use xlink:href="#8" y="4.342"/><use xlink:href="#14" y="6.513"/><use xlink:href="#15" y="8.684"/><use xlink:href="#16" y="10.855"/><use xlink:href="#17" y="13.026"/><use xlink:href="#18" y="17.368"/><use xlink:href="#19" y="21.71"/><use xlink:href="#20" y="23.881"/><use xlink:href="#21" y="26.052"/><use xlink:href="#22" y="28.223"/><use xlink:href="#23" y="32.565"/><use xlink:href="#3" y="34.736"/></svg><svg x="16480"><use xlink:href="#a"/><use xlink:href="#b" x="2.996" y="34.711"/><use xlink:href="#6"/><use xlink:href="#7" y="2.171"/><use xlink:href="#8" y="4.342"/><use xlink:href="#14" y="6.513"/><use xlink:href="#15" y="8.684"/><use xlink:href="#16" y="10.855"/><use xlink:href="#17" y="13.026"/><use xlink:href="#18" y="17.368"/><use xlink:href="#19" y="21.71"/><use xlink:href="#20" y="23.881"/><use xlink:href="#21" y="26.052"/><use xlink:href="#22" y="28.223"/><use xlink:href="#23" y="32.565"/><use xlink:href="#3" y="34.736"/></svg><svg x="16686"><use xlink:href="#a"/><use xlink:href="#b" x="191.996" y="32.54"/><use xlink:href="#6"/><use xlink:href="#7" y="2.171"/><use xlink:href="#8" y="4.342"/><use xlink:href="#14" y="6.513"/><use xlink:href="#15" y="8.684"/><use xlink:href="#16" y="10.855"/><use xlink:href="#17" y="13.026"/><use xlink:href="#18" y="17.368"/><use xlink:href="#19" y="21.71"/><use xlink:href="#20" y="23.881"/><use xlink:href="#21" y="26.052"/><use xlink:href="#22" y="28.223"/><use xlink:href="#1" y="32.565"/></svg><svg x="16892"><use xlink:href="#a"/><use xlink:href="#b" x="2.996" y="34.711"/><use xlink:href="#6"/><use xlink:href="#7" y="2.171"/><use xlink:href="#8" y="4.342"/><use xlink:href="#14" y="6.513"/><use xlink:href="#15" y="8.684"/><use xlink:href="#16" y="10.855"/><use xlink:href="#17" y="13.026"/><use xlink:href="#18" y="17.368"/><use xlink:href="#19" y="21.71"/><use xlink:href="#20" y="23.881"/><use xlink:href="#21" y="26.052"/><use xlink:href="#22" y="28.223"/><use xlink:href="#23" y="32.565"/><use xlink:href="#3" y="34.736"/></svg><svg x="17098"><use xlink:href="#a"/><use xlink:href="#b" x="2.996" y="34.711"/><use xlink:href="#6"/><use xlink:href="#7" y="2.171"/><use xlink:href="#8" y="4.342"/><use xlink:href="#14" y="6.513"/><use xlink:href="#15" y="8.684"/><use xlink:href="#16" y="10.855"/><use xlink:href="#17" y="13.026"/><use xlink:href="#18" y="17.368"/><use xlink:href="#19" y="21.71"/><use xlink:href="#20" y="23.881"/><use xlink:href="#21" y="26.052"/><use xlink:href="#22" y="28.223"/><use xlink:href="#23" y="32.565"/><use xlink:href="#3" y="34.736"/></svg><svg x="17304"><use xlink:href="#a"/><use xlink:href="#b" x="-.004" y="36.882"/><use xlink:href="#6"/><use xlink:href="#7" y="2.171"/><use xlink:href="#8" y="4.342"/><use xlink:href="#14" y="6.513"/><use xlink:href="#15" y="8.684"/><use xlink:href="#16" y="10.855"/><use xlink:href="#17" y="13.026"/><use xlink:href="#18" y="17.368"/><use xlink:href="#19" y="21.71"/><use xlink:href="#20" y="23.881"/><use xlink:href="#21" y="26.052"/><use xlink:href="#22" y="28.223"/><use xlink:href="#23" y="32.565"/><use xlink:href="#3" y="34.736"/></svg></svg></g></g></svg></svg>