<svg width="217" height="217" viewBox="0 0 217 217" fill="none" xmlns="http://www.w3.org/2000/svg">
<path d="M217 108.5C217 122.748 214.194 136.857 208.741 150.021C203.288 163.185 195.296 175.146 185.221 185.221C175.146 195.296 163.185 203.288 150.021 208.741C136.857 214.194 122.748 217 108.5 217L108.5 108.5L217 108.5Z" fill="url(#paint0_linear_2_6)"/>
<path d="M108.5 217C87.0407 217 66.0633 210.637 48.2206 198.714C30.3779 186.792 16.4712 169.847 8.25905 150.021C0.0469454 130.195 -2.10171 108.38 2.08478 87.3327C6.27128 66.2858 16.6049 46.9529 31.7789 31.7789C46.9529 16.6049 66.2858 6.27129 87.3327 2.08479C108.38 -2.1017 130.195 0.0469654 150.021 8.25908C169.847 16.4712 186.792 30.3779 198.714 48.2206C210.637 66.0634 217 87.0407 217 108.5L108.5 108.5L108.5 217Z" fill="white"/>
<defs>
<linearGradient id="paint0_linear_2_6" x1="131" y1="154" x2="64" y2="284" gradientUnits="userSpaceOnUse">
<stop stop-color="#017041"/>
<stop offset="1" stop-color="#017041" stop-opacity="0"/>
</linearGradient>
</defs>
</svg>
